<svg xmlns="http://www.w3.org/2000/svg" width="32" height="32" fill="none"><path stroke="#EB4C34" stroke-linejoin="round" stroke-miterlimit="10" stroke-width="1.5" d="M24.998 8.333h-3.166l-1.755-3.008a2 2 0 0 0-1.727-.992h-4.703a2 2 0 0 0-1.727.992l-1.755 3.008H6.998a3.334 3.334 0 0 0-3.333 3.333v12.667a3.334 3.334 0 0 0 3.333 3.333h18a3.334 3.334 0 0 0 3.334-3.333V11.666a3.334 3.334 0 0 0-3.334-3.333Z"/><path stroke="#EB4C34" stroke-linecap="round" stroke-linejoin="round" stroke-miterlimit="10" stroke-width="1.5" d="M15.999 22.333v-10M20.999 17.333h-10"/></svg>