<svg xmlns="http://www.w3.org/2000/svg" fill="none" viewBox="0 0 24 25"><path stroke="currentColor" stroke-linejoin="round" stroke-miterlimit="10" stroke-width="1.5" d="M20.25 21.188H3.75a1 1 0 0 1-1-1v-12a1 1 0 0 1 1-1h16.5a1 1 0 0 1 1 1v12a1 1 0 0 1-1 1Z"/><path stroke="currentColor" stroke-linejoin="round" stroke-miterlimit="10" stroke-width="1.5" d="M8.25 7.188v-2a1 1 0 0 1 1-1h5.5a1 1 0 0 1 1 1v2"/><path stroke="currentColor" stroke-miterlimit="10" stroke-width="1.5" d="M2.75 15.688H21"/><path fill="currentColor" d="M12.75 17.438h-1.5a.75.75 0 0 1-.75-.75v-2a.75.75 0 0 1 .75-.75h1.5a.75.75 0 0 1 .75.75v2a.75.75 0 0 1-.75.75Z"/></svg>