<svg xmlns="http://www.w3.org/2000/svg" width="24" height="24" fill="none"><path stroke="#A9AAAC" stroke-miterlimit="10" stroke-width="1.2" d="M17.75 20.25H6.25a2.5 2.5 0 0 1-2.5-2.5V6.25a2.5 2.5 0 0 1 2.5-2.5h11.5a2.5 2.5 0 0 1 2.5 2.5v11.5a2.5 2.5 0 0 1-2.5 2.5Z"/><path stroke="#A9AAAC" stroke-miterlimit="10" d="M3.75 7.75h16.5"/><path fill="#A9AAAC" stroke="#A9AAAC" d="M8.5 11.75a.75.75 0 1 1-1.5 0 .75.75 0 0 1 1.5 0ZM12.75 11.75a.75.75 0 1 1-1.5 0 .75.75 0 0 1 1.5 0Z"/><path fill="#A9AAAC" d="M7.75 17.5a1.25 1.25 0 1 0 0-2.5 1.25 1.25 0 0 0 0 2.5ZM12 17.5a1.25 1.25 0 1 0 0-2.5 1.25 1.25 0 0 0 0 2.5ZM16.25 13a1.25 1.25 0 1 0 0-2.5 1.25 1.25 0 0 0 0 2.5Z"/></svg>