<svg xmlns="http://www.w3.org/2000/svg" fill="none" viewBox="0 0 18 16"><path stroke="currentColor" stroke-linejoin="round" stroke-miterlimit="10" d="M14.625 3.207h-1.98l-1.096-1.88a1.25 1.25 0 0 0-1.08-.62H7.53a1.25 1.25 0 0 0-1.08.62l-1.096 1.88h-1.98c-1.15 0-2.083.933-2.083 2.083v7.917c0 1.15.933 2.083 2.084 2.083h11.25c1.15 0 2.083-.933 2.083-2.083V5.29c0-1.15-.933-2.083-2.083-2.083Z"/><path stroke="currentColor" stroke-linejoin="round" stroke-miterlimit="10" d="M9 11.957a3.125 3.125 0 1 0 0-6.25 3.125 3.125 0 0 0 0 6.25Z"/></svg>