<svg xmlns="http://www.w3.org/2000/svg" fill="none" viewBox="0 0 20 20"><path fill="currentColor" fill-rule="evenodd" d="M6.804 3.874a2.308 2.308 0 0 1 2.253-1.808h1.886c1.102 0 2.024.774 2.253 1.808H6.804Zm-.555 1h9.814v11.812c0 .265-.148.58-.428.844-.279.261-.63.414-.947.414H5.312c-.317 0-.668-.153-.947-.414-.28-.263-.428-.579-.428-.845V4.875H6.25Zm-.461-1a3.308 3.308 0 0 1 3.27-2.808h1.885a3.308 3.308 0 0 1 3.27 2.808h4.225a.5.5 0 0 1 0 1h-1.375v11.812c0 .613-.322 1.177-.744 1.573-.425.399-1.011.685-1.631.685H5.312c-.62 0-1.206-.286-1.63-.685-.423-.396-.745-.96-.745-1.573V4.874H1.563a.5.5 0 0 1 0-1h4.224ZM8.125 8.66a.5.5 0 0 1 .5.5v4.496a.5.5 0 0 1-1 0V9.161a.5.5 0 0 1 .5-.5Zm4.25.5a.5.5 0 0 0-1 0v4.496a.5.5 0 1 0 1 0V9.161Z" clip-rule="evenodd"/></svg>