<svg xmlns="http://www.w3.org/2000/svg" fill="none" viewBox="0 0 24 24"><path stroke="currentColor" stroke-linecap="round" stroke-linejoin="round" stroke-miterlimit="10" stroke-width="1.2" d="M4.75 18v1.25a2 2 0 0 0 2 2h13"/><path stroke="currentColor" stroke-miterlimit="10" stroke-width="1.2" d="M12.25 6.25a1.5 1.5 0 1 0 0 3 1.5 1.5 0 0 0 0-3Z"/><path stroke="currentColor" stroke-linejoin="round" stroke-miterlimit="10" stroke-width="1.2" d="M19.75 18.75h-15v-14a2 2 0 0 1 2-2h11a2 2 0 0 1 2 2v14Z"/><path stroke="currentColor" stroke-linejoin="round" stroke-miterlimit="10" stroke-width="1.2" d="M15.25 13.5c0 .966-1.343 1.75-3 1.75s-3-.784-3-1.75v-1.25a.5.5 0 0 1 .5-.5h5a.5.5 0 0 1 .5.5v1.25Z"/></svg>