<svg xmlns="http://www.w3.org/2000/svg" fill="none" viewBox="0 0 20 20"><path stroke="currentColor" stroke-miterlimit="10" stroke-width="1.2" d="M10 12.708a2.708 2.708 0 1 0 0-5.416 2.708 2.708 0 0 0 0 5.416Z"/><path stroke="currentColor" stroke-linejoin="round" stroke-miterlimit="10" d="M11.886 16.29a1.875 1.875 0 0 1 2.62-1.511l1.11.489a7.693 7.693 0 0 0 1.76-3.033l-.985-.723a1.875 1.875 0 0 1 0-3.024l.986-.723a7.693 7.693 0 0 0-1.76-3.033l-1.112.49a1.875 1.875 0 0 1-2.619-1.513L11.755 2.5A7.7 7.7 0 0 0 10 2.292c-.604 0-1.19.076-1.754.208l-.132 1.209A1.875 1.875 0 0 1 5.495 5.22l-1.111-.49a7.693 7.693 0 0 0-1.76 3.034l.985.722a1.876 1.876 0 0 1 0 3.025l-.985.723a7.688 7.688 0 0 0 1.76 3.033l1.111-.49a1.875 1.875 0 0 1 2.619 1.513l.132 1.209c.565.132 1.15.208 1.754.208a7.72 7.72 0 0 0 1.754-.208l.133-1.21Z"/></svg>