<svg viewBox="0 0 22 22" fill="none" xmlns="http://www.w3.org/2000/svg"><path fill-rule="evenodd" clip-rule="evenodd" d="M18.7 3.61a.302.302 0 0 0-.303-.303l-1.727.004a.525.525 0 0 0-.37.154l-4.381 4.38c-.48.48-1.17.578-1.748.408a5.35 5.35 0 0 0-5.3 1.354c-2.09 2.09-2.094 5.469-.017 7.546s5.456 2.073 7.546-.018a5.35 5.35 0 0 0 1.407-5.105 1.735 1.735 0 0 1 .041-1.02l.512-1.407c.186-.547.65-.955 1.217-1.07l.583-.117a.526.526 0 0 0 .411-.411l.1-.493.54.109-.54-.109c.13-.64.63-1.142 1.271-1.271l.332-.068a.526.526 0 0 0 .422-.513l.004-2.05Zm-.305-1.403A1.402 1.402 0 0 1 19.8 3.612l-.004 2.05a1.626 1.626 0 0 1-1.304 1.59l-.332.067a.526.526 0 0 0-.41.41l-.1.494c-.13.64-.631 1.142-1.272 1.271l-.583.118a.526.526 0 0 0-.395.348l-.004.014-.514 1.412a.638.638 0 0 0-.008.374 6.45 6.45 0 0 1-1.696 6.153c-2.517 2.517-6.592 2.528-9.102.018-2.51-2.51-2.499-6.585.018-9.102a6.45 6.45 0 0 1 6.388-1.631c.266.078.514.015.659-.13l4.381-4.381a1.625 1.625 0 0 1 1.145-.476l1.728-.004ZM6.05 14.857a1.1 1.1 0 1 1 2.2 0 1.1 1.1 0 0 1-2.2 0Z" fill="currentColor"/></svg>