<svg xmlns="http://www.w3.org/2000/svg" fill="none" viewBox="0 0 20 20"><path fill="currentColor" d="M7.292 6.666a.625.625 0 1 0 0-1.25.625.625 0 0 0 0 1.25ZM7.292 9.584a.625.625 0 1 0 0-1.25.625.625 0 0 0 0 1.25Z"/><path stroke="currentColor" stroke-linejoin="round" stroke-miterlimit="10" d="M10.625 13.542v3.75H5.208c-.69 0-1.25-.56-1.25-1.25V3.96c0-.69.56-1.25 1.25-1.25h9.584c.69 0 1.25.56 1.25 1.25v8.333h-4.167c-.69 0-1.25.56-1.25 1.25ZM16.042 12.291l-5.417 5"/><path stroke="currentColor" stroke-linecap="round" stroke-miterlimit="10" d="M9.375 8.959h2.917M9.375 6.041h2.917"/></svg>