<svg viewBox="0 0 340 101" fill="none" xmlns="http://www.w3.org/2000/svg"><path d="m122.659 74-8.362-7.082V34.016l8.362-7.082h26.192l7.6 6.442-5.952 5.115-5.484-4.524h-17.978l-3.321 2.803.074 27.394 3.247 2.803h18.666l5.485-4.598 5.952 5.164-7.6 6.443h-26.881V74ZM173.863 74l-8.362-7.082V26.934h9.395v37.23l3.321 2.803h18.371l3.32-2.803.074-37.23h9.395v39.984L201.015 74h-27.152ZM218.305 74V26.934h31.898l8.362 7.082v11.041L254.95 48.5l6.099 5.115v13.279l-8.362 7.082h-34.382V74Zm9.419-28.156h18.126l3.246-3.197V36.77l-3.32-2.803h-18.052v11.877Zm0 21.148h20.536l3.32-2.803v-8.484l-3.32-2.804h-20.536v14.091ZM270.075 74v-7.279h5.632V34.213h-5.632v-7.28h20.684v7.28h-5.632V66.72h5.632v7.28h-20.684ZM314.886 74V34.213h-15.421v-7.28h40.261v7.28h-15.421V74h-9.419Z" fill="#000"/><path d="M85.89 24.4 45.016.819l-4.918 2.853v44.681L7.657 67.066V32.49l7.181-3.024-9.714-5.607-2.46 1.426-2.459 1.426v47.19l1.55 2.68 40.875 23.583 4.918-2.853V56.934l34.973 20.19 4.919-2.853V27.08l-1.55-2.68ZM40.098 90.084 11.395 73.508l28.702-16.574v33.148Zm39.891-23.017-32.44-18.714V10.901l28.726 16.574-3.984 2.336 1.525 7.746 6.173-3.59v33.099Z" fill="url(#a)"/><path d="m.205 26.688 2.46-1.426-2.46 1.426Z" fill="url(#b)"/><path d="M82.989 23.565 43.983 46.262 5.124 23.835l-.984.566-3.222 5.607 41.515 23.975h3.124L86.75 30.008l-3.762-6.443Z" fill="#F34925"/><defs><radialGradient id="a" cx="0" cy="0" r="1" gradientUnits="userSpaceOnUse" gradientTransform="matrix(37.0937 0 0 37.0886 44.024 53.337)"><stop stop-color="#fff" stop-opacity="0"/><stop offset=".02" stop-color="#FFFAF9" stop-opacity=".02"/><stop offset=".293" stop-color="#FBBCAF" stop-opacity=".293"/><stop offset=".537" stop-color="#F78B74" stop-opacity=".537"/><stop offset=".744" stop-color="#F56749" stop-opacity=".744"/><stop offset=".904" stop-color="#F4512F" stop-opacity=".904"/><stop offset="1" stop-color="#F34925"/></radialGradient><radialGradient id="b" cx="0" cy="0" r="1" gradientUnits="userSpaceOnUse" gradientTransform="matrix(1.00467 0 0 1.00456 1.44 25.976)"><stop/><stop offset=".014" stop-color="#050100"/><stop offset=".299" stop-color="#5C1A00"/><stop offset=".549" stop-color="#A22D01"/><stop offset=".757" stop-color="#D43B01"/><stop offset=".913" stop-color="#F34401"/><stop offset="1" stop-color="#FF4701"/></radialGradient></defs></svg>