<svg xmlns="http://www.w3.org/2000/svg" width="32" height="40" fill="none" viewBox="0 0 40 40"><rect width="40" height="40" fill="#EB4C34" rx="8"/><path fill="#fff" d="M20 8.47c-.87 0-1.738.102-2.625.306a.927.927 0 0 0-.7.793l-.18 1.664a1.665 1.665 0 0 1-2.333 1.347l-1.536-.67a.905.905 0 0 0-1.032.21 11.602 11.602 0 0 0-2.63 4.537c-.111.368.023.77.332.998l1.36.997c.425.315.682.817.682 1.348 0 .53-.257 1.033-.683 1.348l-1.359.997a.916.916 0 0 0-.333.998A11.545 11.545 0 0 0 11.6 27.88a.904.904 0 0 0 1.026.21l1.535-.67a1.665 1.665 0 0 1 2.333 1.346l.181 1.663c.047.385.327.7.7.793.887.204 1.767.31 2.625.31h.041a2.292 2.292 0 0 1-.041-.45v-7.291A3.799 3.799 0 0 1 16.208 20 3.799 3.799 0 0 1 20 16.208 3.799 3.799 0 0 1 23.792 20c0 .198-.018.397-.047.583h5.022a1.683 1.683 0 0 1 .578-1.931l1.359-.997a.916.916 0 0 0 .333-.998 11.603 11.603 0 0 0-2.631-4.538.914.914 0 0 0-1.032-.21l-1.535.67a1.665 1.665 0 0 1-2.333-1.346l-.181-1.664a.933.933 0 0 0-.7-.793A11.633 11.633 0 0 0 20 8.47Zm2.917 13.28a1.75 1.75 0 0 0-1.75 1.75v7.583c0 .967.783 1.75 1.75 1.75h8.166a1.75 1.75 0 0 0 1.75-1.75V23.5a1.75 1.75 0 0 0-1.75-1.75h-8.166Zm7.622 2.918a.583.583 0 0 1 .345 1.022l-4.667 4.083a.583.583 0 0 1-.795-.027l-2.333-2.334a.583.583 0 1 1 .823-.825l1.949 1.949 4.255-3.726a.58.58 0 0 1 .423-.142Z"/></svg>