<svg viewBox="0 0 24 24" fill="none" xmlns="http://www.w3.org/2000/svg"><path d="M12 11.25a4.25 4.25 0 1 0 0-8.5 4.25 4.25 0 0 0 0 8.5Z" stroke="currentColor" stroke-width="1.2" stroke-miterlimit="5"/><path d="m11.25 18.75 3.436 3.447a.1.1 0 0 0 .142 0l7.42-7.447" stroke="currentColor" stroke-width="1.2" stroke-linecap="round"/><path fill-rule="evenodd" clip-rule="evenodd" d="M4.15 16.19a2.04 2.04 0 0 1 2.04-2.04h11.215a3.1 3.1 0 0 1 2.128.846l-.849.85a1.9 1.9 0 0 0-1.28-.496H6.19a.84.84 0 0 0-.84.84c0 .906.096 1.662.526 2.204.613.775 1.935 1.86 4.706 2.165l1.28 1.28c-3.985-.07-5.974-1.496-6.927-2.7-.706-.892-.785-2.026-.785-2.949Z" fill="currentColor"/></svg>