<svg viewBox="0 0 20 20" fill="none" xmlns="http://www.w3.org/2000/svg"><path d="M15.625 8.958H12.29c-.69 0-1.25-.56-1.25-1.25V4.375c0-.69.56-1.25 1.25-1.25h3.334c.69 0 1.25.56 1.25 1.25v3.333c0 .69-.56 1.25-1.25 1.25ZM7.708 8.958H4.375c-.69 0-1.25-.56-1.25-1.25V4.375c0-.69.56-1.25 1.25-1.25h3.333c.69 0 1.25.56 1.25 1.25v3.333c0 .69-.56 1.25-1.25 1.25ZM15.625 16.875H12.29c-.69 0-1.25-.56-1.25-1.25v-3.333c0-.69.56-1.25 1.25-1.25h3.334c.69 0 1.25.56 1.25 1.25v3.333c0 .69-.56 1.25-1.25 1.25ZM7.708 16.875H4.375c-.69 0-1.25-.56-1.25-1.25v-3.333c0-.69.56-1.25 1.25-1.25h3.333c.69 0 1.25.56 1.25 1.25v3.333c0 .69-.56 1.25-1.25 1.25Z" stroke="currentColor" stroke-width="1.2" stroke-miterlimit="10"/></svg>