<svg viewBox="0 0 24 24" fill="none" xmlns="http://www.w3.org/2000/svg"><path d="M20.25 14.25v4a2.5 2.5 0 0 1-2.5 2.5H6.25a2.5 2.5 0 0 1-2.5-2.5v-4h5.29c0 2 1.574 3 2.96 3s2.96-1 2.96-3h5.29Z" stroke="currentColor" stroke-width="1.2" stroke-miterlimit="10" stroke-linejoin="round"/><path d="M4.75 14.25v-9.5a1.5 1.5 0 0 1 1.5-1.5h11.5a1.5 1.5 0 0 1 1.5 1.5v9.5M12.75 10.75h-4.5M12.75 7.25h-4.5" stroke="currentColor" stroke-width="1.2" stroke-miterlimit="10" stroke-linecap="round" stroke-linejoin="round"/><path d="M15.75 8a.75.75 0 1 0 0-1.5.75.75 0 0 0 0 1.5ZM15.75 11.5a.75.75 0 1 0 0-1.5.75.75 0 0 0 0 1.5Z" fill="currentColor"/></svg>