<svg xmlns="http://www.w3.org/2000/svg" fill="none" viewBox="0 0 14 14"><path fill="currentColor" fill-rule="evenodd" d="M7 1.5a5.5 5.5 0 1 0 0 11 5.5 5.5 0 0 0 0-11ZM.5 7a6.5 6.5 0 1 1 13 0 6.5 6.5 0 0 1-13 0Zm6.7-2.815a1.5 1.5 0 0 0-1.668.98.5.5 0 1 1-.944-.331 2.5 2.5 0 0 1 4.859.833h-.5.5c0 .932-.693 1.562-1.223 1.916a5.198 5.198 0 0 1-1.087.547l-.022.007-.006.003h-.003l-.16-.473.159.474a.5.5 0 0 1-.317-.949h.002l.012-.004.053-.02a4.198 4.198 0 0 0 .815-.418c.47-.313.777-.682.777-1.083v-.001A1.5 1.5 0 0 0 7.2 4.186ZM7 9.834a.5.5 0 0 0 0 1h.007a.5.5 0 0 0 0-1H7Z" clip-rule="evenodd"/></svg>