<svg viewBox="0 0 24 24" fill="none" xmlns="http://www.w3.org/2000/svg"><path fill-rule="evenodd" clip-rule="evenodd" d="M4.35 5.748a1.4 1.4 0 0 1 1.4-1.4h12.5a1.4 1.4 0 0 1 1.4 1.4v12.5a1.4 1.4 0 0 1-1.4 1.4H5.75a1.4 1.4 0 0 1-1.4-1.4v-12.5Zm1.4-2.6a2.6 2.6 0 0 0-2.6 2.6v12.5a2.6 2.6 0 0 0 2.6 2.6h12.5a2.6 2.6 0 0 0 2.6-2.6v-12.5a2.6 2.6 0 0 0-2.6-2.6H5.75Zm6.85 4.1a.6.6 0 1 0-1.2 0v9.5a.6.6 0 1 0 1.2 0v-9.5Zm3.65 5.4a.6.6 0 0 1 .6.6v3.5a.6.6 0 1 1-1.2 0v-3.5a.6.6 0 0 1 .6-.6Zm-7.9-2.4a.6.6 0 0 0-1.2 0v6.5a.6.6 0 1 0 1.2 0v-6.5Z" fill="currentColor"/></svg>