<svg viewBox="0 0 20 20" fill="none" xmlns="http://www.w3.org/2000/svg"><path fill-rule="evenodd" clip-rule="evenodd" d="M10 3.159a6.841 6.841 0 0 0-5.578 10.802 7.099 7.099 0 0 1 5.578-2.7 7.099 7.099 0 0 1 5.578 2.7A6.841 6.841 0 0 0 10 3.159Zm4.78 11.735A5.902 5.902 0 0 0 10 12.46a5.902 5.902 0 0 0-4.78 2.434A6.819 6.819 0 0 0 10 16.84c1.86 0 3.547-.742 4.78-1.947ZM1.96 10a8.041 8.041 0 1 1 16.082 0 8.041 8.041 0 0 1-16.082 0ZM10 6.322a1.725 1.725 0 1 0 0 3.45 1.725 1.725 0 0 0 0-3.45ZM7.075 8.046a2.925 2.925 0 1 1 5.85 0 2.925 2.925 0 0 1-5.85 0Z" fill="currentColor"/></svg>