<svg viewBox="0 0 20 20" fill="none" xmlns="http://www.w3.org/2000/svg"><path d="M4.792 3.125h8.333l3.75 3.333v8.75c0 .92-.746 1.667-1.667 1.667H4.792c-.92 0-1.667-.746-1.667-1.667V4.792c0-.92.746-1.667 1.667-1.667Z" stroke="currentColor" stroke-miterlimit="10" stroke-linecap="round" stroke-linejoin="round"/><path d="M6.042 3.125v2.917c0 .46.373.833.833.833h5c.46 0 .833-.373.833-.833V3.125M14.375 16.875v-5.417a.833.833 0 0 0-.833-.833H6.458a.833.833 0 0 0-.833.833v5.417" stroke="currentColor" stroke-miterlimit="10" stroke-linecap="round" stroke-linejoin="round"/></svg>