<svg viewBox="0 0 16 16" fill="none" xmlns="http://www.w3.org/2000/svg"><path d="M15.216 12.75 9.282 1.667a1.54 1.54 0 0 0-.543-.588 1.412 1.412 0 0 0-.747-.215c-.263 0-.52.074-.747.215a1.539 1.539 0 0 0-.544.588L.768 12.75a1.667 1.667 0 0 0 .003 1.59c.132.24.321.44.548.578.228.138.485.21.747.207h11.867c.26 0 .516-.074.74-.213.226-.139.413-.339.543-.58a1.666 1.666 0 0 0 0-1.583ZM8 5.625v3.167" stroke="currentColor" stroke-linecap="round" stroke-linejoin="round"/><path d="M8 11.958h.008" stroke="currentColor" stroke-width="1.5" stroke-linecap="round" stroke-linejoin="round"/></svg>