<svg viewBox="0 0 24 24" fill="none" xmlns="http://www.w3.org/2000/svg"><path d="M10.245 2.984C7.335 3.787 5.25 6.55 5.25 9.69v3.81l-1.404 2.824a1 1 0 0 0 .905 1.426h14.497a1 1 0 0 0 .905-1.426L19.1 14.202M14.25 18.5a2.25 2.25 0 0 1-4.5 0" stroke="currentColor" stroke-width="1.2" stroke-miterlimit="10" stroke-linecap="round" stroke-linejoin="round"/><path d="M17.619 1.082h-.238a1.083 1.083 0 0 0-1.084 1.083v.098a1.083 1.083 0 0 1-.541.937l-.233.135a1.083 1.083 0 0 1-1.084 0l-.08-.043a1.083 1.083 0 0 0-1.48.395l-.119.206a1.084 1.084 0 0 0 .396 1.479l.08.054a1.083 1.083 0 0 1 .542.932v.276a1.082 1.082 0 0 1-.541.943l-.081.048a1.083 1.083 0 0 0-.396 1.48l.12.205a1.084 1.084 0 0 0 1.478.395l.081-.043a1.083 1.083 0 0 1 1.084 0l.233.135a1.083 1.083 0 0 1 .541.938v.097a1.083 1.083 0 0 0 1.084 1.083h.238a1.084 1.084 0 0 0 1.083-1.083v-.098a1.083 1.083 0 0 1 .542-.937l.233-.135a1.083 1.083 0 0 1 1.083 0l.081.043a1.083 1.083 0 0 0 1.48-.395l.118-.211a1.084 1.084 0 0 0-.395-1.479l-.081-.043a1.083 1.083 0 0 1-.542-.943v-.27a1.082 1.082 0 0 1 .542-.943l.08-.049a1.083 1.083 0 0 0 .396-1.479l-.119-.206a1.084 1.084 0 0 0-1.479-.395l-.08.043a1.083 1.083 0 0 1-1.084 0l-.233-.135a1.083 1.083 0 0 1-.542-.937v-.098a1.084 1.084 0 0 0-1.083-1.083Z" stroke="currentColor" stroke-linecap="round" stroke-linejoin="round"/><path d="M17.5 8.125a1.625 1.625 0 1 0 0-3.25 1.625 1.625 0 0 0 0 3.25Z" stroke="currentColor" stroke-linecap="round" stroke-linejoin="round"/></svg>