<svg viewBox="0 0 24 24" fill="none" xmlns="http://www.w3.org/2000/svg"><path d="M7.25 10.75a3.5 3.5 0 1 0 0-7 3.5 3.5 0 0 0 0 7ZM9.48 20.25H5.02c-.979 0-1.589-1.085-1.095-1.949l2.23-3.908a1.254 1.254 0 0 1 2.19 0l2.23 3.908c.493.864-.117 1.95-1.095 1.95ZM18.25 10.25h-3a1.5 1.5 0 0 1-1.5-1.5v-3a1.5 1.5 0 0 1 1.5-1.5h3a1.5 1.5 0 0 1 1.5 1.5v3a1.5 1.5 0 0 1-1.5 1.5ZM15.814 13.545l-2.02 1.458a1.58 1.58 0 0 0-.58 1.766l.762 2.372a1.58 1.58 0 0 0 1.5 1.097l2.491.008a1.58 1.58 0 0 0 1.507-1.087l.778-2.367a1.58 1.58 0 0 0-.568-1.77l-2.011-1.47a1.58 1.58 0 0 0-1.859-.007Z" stroke="currentColor" stroke-width="1.2" stroke-miterlimit="10" stroke-linecap="round" stroke-linejoin="round"/></svg>